<?xml version="1.0" encoding="utf-8"?>
<!-- Uploaded to: SVG Repo, www.svgrepo.com, Generator: SVG Repo Mixer Tools -->
<svg width="800px" height="800px" viewBox="0 0 24 24" fill="none" xmlns="http://www.w3.org/2000/svg">
<g id="style=stroke">
<g id="star">
<path id="vector (Stroke)" fill-rule="evenodd" clip-rule="evenodd" d="M10.9301 3.84646C10.93 3.84665 10.9302 3.84627 10.9301 3.84646L9.17203 7.36258C8.98469 7.74342 8.67178 8.06883 8.35042 8.30711C8.02813 8.54607 7.62764 8.74908 7.21553 8.81906L7.21289 8.81951L4.02327 9.34944C4.02314 9.34946 4.02339 9.34942 4.02327 9.34944C3.13367 9.4978 2.84387 9.84815 2.77693 10.0578C2.70974 10.2682 2.7433 10.7223 3.3803 11.3593L5.8603 13.8393C6.18269 14.1617 6.39834 14.5928 6.51726 15.0082C6.63627 15.424 6.68078 15.9021 6.58181 16.3437L6.5807 16.3486L5.87068 19.4186C5.60626 20.5613 5.87372 20.9784 6.00954 21.0775C6.14596 21.1771 6.62632 21.3046 7.6372 20.7047L10.6328 18.9314C11.0487 18.6894 11.5468 18.5896 12.0037 18.5896C12.4598 18.5896 12.9581 18.6891 13.372 18.9343C13.3721 18.9343 13.3719 18.9342 13.372 18.9343L16.3614 20.7039C16.3616 20.704 16.3612 20.7038 16.3614 20.7039C17.3805 21.3057 17.8604 21.1788 17.9944 21.0811C18.1271 20.9844 18.3945 20.5698 18.1291 19.4181L17.4181 16.3437C17.3191 15.9021 17.3637 15.424 17.4827 15.0082C17.6016 14.5928 17.8172 14.1617 18.1396 13.8393L20.6196 11.3593L20.6215 11.3575C21.2626 10.7207 21.2942 10.2678 21.2272 10.0592C21.1596 9.84889 20.8674 9.49798 19.977 9.34951C19.9769 9.34949 19.9772 9.34953 19.977 9.34951L16.787 8.81951C16.3707 8.75011 15.9671 8.54787 15.6422 8.30815C15.3186 8.0694 15.0054 7.74368 14.8179 7.36263L13.0584 3.84365C12.6377 2.99763 12.21 2.82715 11.9987 2.82715C11.7861 2.82715 11.3558 2.99979 10.9301 3.84646ZM14.4012 3.17499C13.8719 2.11134 13.0447 1.32715 11.9987 1.32715C10.9539 1.32715 10.1241 2.11 9.58985 3.17284L7.82915 6.69424L7.82642 6.69975C7.77359 6.8076 7.64731 6.9611 7.45702 7.10219C7.26737 7.2428 7.0834 7.31975 6.96547 7.34005C6.96511 7.34011 6.96476 7.34017 6.96441 7.34023L3.77705 7.86979C2.62694 8.06147 1.66106 8.62118 1.34801 9.6015C1.03519 10.5811 1.49663 11.597 2.31964 12.42L4.79964 14.9C4.89724 14.9976 5.0066 15.1815 5.07518 15.4211C5.14334 15.6592 5.1491 15.8751 5.11856 16.0137C5.11842 16.0143 5.11827 16.015 5.11813 16.0156L4.40928 19.0806C4.40928 19.0805 4.40927 19.0806 4.40928 19.0806C4.11373 20.3578 4.21624 21.6259 5.12539 22.2893C6.03398 22.9522 7.27361 22.6647 8.40273 21.9946L11.3871 20.2279C11.3878 20.2275 11.3884 20.2272 11.389 20.2268C11.5232 20.1494 11.7443 20.0896 12.0037 20.0896C12.265 20.0896 12.4816 20.1502 12.6076 20.2249L15.5979 21.995C16.7284 22.6628 17.9695 22.9555 18.878 22.2932C19.7878 21.6299 19.8854 20.3595 19.5908 19.0812L18.8818 16.0156C18.8817 16.015 18.8815 16.0143 18.8814 16.0137C18.8508 15.8751 18.8566 15.6592 18.9248 15.4211C18.9933 15.1815 19.1027 14.9976 19.2003 14.9L21.6785 12.4218C21.6788 12.4214 21.6792 12.4211 21.6795 12.4208C22.5077 11.5978 22.9706 10.5811 22.6552 9.60014C22.3403 8.62044 21.3726 8.06141 20.2233 7.86985L17.0333 7.33985C17.0334 7.33987 17.0331 7.33983 17.0333 7.33985M14.4012 3.17499C14.4013 3.17521 14.4011 3.17477 14.4012 3.17499V3.17499Z" fill="#000000"/>
</g>
</g>
</svg>